<svg xmlns="http://www.w3.org/2000/svg" width="600" height="380" viewBox="0 0 600 380"><rect width="600" height="380" fill="#f0ecdf"/><g fill="#d6d1c4" opacity=".6"><circle cx="32" cy="30" r="1.4" fill="#d6d1c4"/><circle cx="166" cy="30" r="1.4" fill="#d6d1c4"/><circle cx="300" cy="30" r="1.4" fill="#d6d1c4"/><circle cx="434" cy="30" r="1.4" fill="#d6d1c4"/><circle cx="568" cy="30" r="1.4" fill="#d6d1c4"/><circle cx="32" cy="134" r="1.4" fill="#d6d1c4"/><circle cx="166" cy="134" r="1.4" fill="#d6d1c4"/><circle cx="300" cy="134" r="1.4" fill="#d6d1c4"/><circle cx="434" cy="134" r="1.4" fill="#d6d1c4"/><circle cx="568" cy="134" r="1.4" fill="#d6d1c4"/><circle cx="32" cy="238" r="1.4" fill="#d6d1c4"/><circle cx="166" cy="238" r="1.4" fill="#d6d1c4"/><circle cx="300" cy="238" r="1.4" fill="#d6d1c4"/><circle cx="434" cy="238" r="1.4" fill="#d6d1c4"/><circle cx="568" cy="238" r="1.4" fill="#d6d1c4"/><circle cx="32" cy="342" r="1.4" fill="#d6d1c4"/><circle cx="166" cy="342" r="1.4" fill="#d6d1c4"/><circle cx="300" cy="342" r="1.4" fill="#d6d1c4"/><circle cx="434" cy="342" r="1.4" fill="#d6d1c4"/><circle cx="568" cy="342" r="1.4" fill="#d6d1c4"/></g><text x="65" y="62" font-family="Inter, sans-serif" font-size="12" font-weight="500" fill="#292b2c">INFORMATION ARCHITECTURE</text><rect x="230" y="91" width="141" height="58" rx="12" fill="#292b2c" stroke="#d6d1c4" stroke-width="2"/><text x="271" y="126" font-family="Inter, sans-serif" font-size="13" font-weight="500" fill="#fffaf0">HOME</text><path d="M300 149v34M103 183h394M103 183v27M234 183v27M365 183v27M497 183v27" fill="none" stroke="#a3b6a3" stroke-width="3" stroke-linecap="round" stroke-linejoin="round"/><rect x="51" y="210" width="105" height="99" rx="12" fill="#fffaf0" stroke="#d6d1c4" stroke-width="2"/><text x="66" y="240" font-family="Inter, sans-serif" font-size="10" font-weight="500" fill="#292b2c">SYSTEMS</text><path d="M67 273h68" fill="none" stroke="#d6d1c4" stroke-width="5" stroke-linecap="round" stroke-linejoin="round"/><path d="M67 289h55" fill="none" stroke="#d6d1c4" stroke-width="5" stroke-linecap="round" stroke-linejoin="round"/><rect x="181" y="210" width="105" height="99" rx="12" fill="#e4e3d5" stroke="#d6d1c4" stroke-width="2"/><text x="196" y="240" font-family="Inter, sans-serif" font-size="10" font-weight="500" fill="#292b2c">BRANDS</text><path d="M197 273h68" fill="none" stroke="#d6d1c4" stroke-width="5" stroke-linecap="round" stroke-linejoin="round"/><path d="M197 289h55" fill="none" stroke="#d6d1c4" stroke-width="5" stroke-linecap="round" stroke-linejoin="round"/><rect x="312" y="210" width="105" height="99" rx="12" fill="#fffaf0" stroke="#d6d1c4" stroke-width="2"/><text x="327" y="240" font-family="Inter, sans-serif" font-size="10" font-weight="500" fill="#292b2c">STUDIO</text><path d="M328 273h68" fill="none" stroke="#d6d1c4" stroke-width="5" stroke-linecap="round" stroke-linejoin="round"/><path d="M328 289h55" fill="none" stroke="#d6d1c4" stroke-width="5" stroke-linecap="round" stroke-linejoin="round"/><rect x="444" y="210" width="105" height="99" rx="12" fill="#fffaf0" stroke="#d6d1c4" stroke-width="2"/><text x="459" y="240" font-family="Inter, sans-serif" font-size="10" font-weight="500" fill="#292b2c">DIGITAL</text><path d="M460 273h68" fill="none" stroke="#d6d1c4" stroke-width="5" stroke-linecap="round" stroke-linejoin="round"/><path d="M460 289h55" fill="none" stroke="#d6d1c4" stroke-width="5" stroke-linecap="round" stroke-linejoin="round"/></svg>
